# xmcd CD database file
#
# Track frame offsets:
#	150
#	2991
#	16825
#	31312
#	48291
#	70595
#	88585
#	102819
#	112467
#	136346
#	149949
#	166352
#	179330
#	192547
#	218013
#	234441
#	253532
#	277000
#	295227
#
# Disc length: 4340 seconds
#
# Revision: 0
# Processed by: cddbd v1.4PL0 Copyright (c) Steve Scherf et al.
# Submitted via: Feurio! 1.65 - http://www.feurio.com
#
DISCID=1c10f213
DTITLE=Ryan Adams - Heartbreaker
DYEAR=1900
DGENRE=Alt Country
TTITLE0=(Argument)
TTITLE1=To be Young
TTITLE2=My winding Wheel
TTITLE3=AMY
TTITLE4=Oh My Sweet Carolina
TTITLE5=Bartering Lines
TTITLE6=Call Me On Your Way Back Home
TTITLE7=Damn, Sam
TTITLE8=Come Pick Me Up
TTITLE9=To Be The One
TTITLE10=Why Do You Leave
TTITLE11=Shakedown on 9th Street
TTITLE12=Don't Ask For The Water
TTITLE13=In My Time Of Need
TTITLE14=Sweet Lil Gal
TTITLE15=Drunk And Fucked Up
TTITLE16=Sweet Valentine
TTITLE17=Hey There Misses Lovely
TTITLE18=Ryan Adams w/ Gillian Welch - The Revelator
EXTD=+ 4 extra live-tracks
EXTT0=
EXTT1=
EXTT2=
EXTT3=
EXTT4=
EXTT5=
EXTT6=
EXTT7=
EXTT8=
EXTT9=
EXTT10=
EXTT11=
EXTT12=
EXTT13=
EXTT14=
EXTT15=
EXTT16=
EXTT17=
EXTT18=
PLAYORDER=
